# xmcd
#
# Track frame offsets: 
#        150
#        20047
#        45350
#        63677
#        76475
#        92293
#        106952
#        125411
#        140931
#        161643
#        180406
#        197895
#        211509
#        227590
#        263360
#
# Disc length: 3678 seconds
#
# Revision: 0
# Processed by: cddbd v1.5.2PL0 Copyright (c) Steve Scherf et al.
# Submitted via: ExactAudioCopy v0.99pb4
#
DISCID=c20e5c0f
DTITLE=B. Sharp - History 1
DYEAR=1900
DGENRE=Blues
TTITLE0=Whole Lotta Blues
TTITLE1=I'm Going Home
TTITLE2=Masterplan
TTITLE3=Don't Want Your Lovin'
TTITLE4=Do What You Do
TTITLE5=The Crawl
TTITLE6=Don't Stay Too Long
TTITLE7=Henry's Song
TTITLE8=Running Shoes
TTITLE9=Since You Left Me
TTITLE10=Gonna Miss Me
TTITLE11=Devil With The Blue Dress On
TTITLE12=You Can't Judge A Book
TTITLE13=Have A Good Time
TTITLE14=Boom Boom, Out Go The Lights
EXTD=
EXTT0=
EXTT1=
EXTT2=
EXTT3=
EXTT4=
EXTT5=
EXTT6=
EXTT7=
EXTT8=
EXTT9=
EXTT10=
EXTT11=
EXTT12=
EXTT13=
EXTT14=
PLAYORDER=
